# 3ds Max Wavefront OBJ Exporter v0.97b - (c)2007 guruware
# File Created: 25.06.2016 21:10:44

mtllib Floor.mtl

#
# object Floor
#

v  -1.0000 -0.0000 1.0000
v  -1.0000 0.2500 -1.0000
v  -1.0000 0.0000 -1.0000
v  -1.0000 0.2500 1.0000
v  1.0000 0.2500 -1.0000
v  1.0000 0.0000 -1.0000
v  1.0000 0.2500 1.0000
v  1.0000 -0.0000 1.0000
# 8 vertices

vn -1.0000 0.0000 -0.0000
vn 0.0000 0.0000 -1.0000
vn 1.0000 0.0000 -0.0000
vn 0.0000 -0.0000 1.0000
vn 0.0000 -1.0000 -0.0000
vn 0.0000 1.0000 0.0000
# 6 vertex normals

vt 0.9995 0.2135 0.0000
vt 0.5013 0.2757 0.0000
vt 0.5013 0.2135 0.0000
vt 0.9995 0.2757 0.0000
vt 0.9995 0.0715 0.0000
vt 0.5013 0.1338 0.0000
vt 0.5013 0.0715 0.0000
vt 0.9995 0.1338 0.0000
vt 0.9995 0.1425 0.0000
vt 0.5013 0.2047 0.0000
vt 0.5013 0.1425 0.0000
vt 0.9995 0.2047 0.0000
vt 0.9995 0.0005 0.0000
vt 0.5013 0.0628 0.0000
vt 0.5013 0.0005 0.0000
vt 0.9995 0.0628 0.0000
vt 0.0005 0.5013 0.0000
vt 0.4987 0.9995 0.0000
vt 0.0005 0.9995 0.0000
vt 0.4987 0.5013 0.0000
vt 0.4987 0.4987 0.0000
vt 0.0005 0.0005 0.0000
vt 0.4987 0.0005 0.0000
vt 0.0005 0.4987 0.0000
# 24 texture coords

g Floor
usemtl Material__25
s 1
f 1/1/1 2/2/1 3/3/1 
f 2/2/1 1/1/1 4/4/1 
s 2
f 3/5/2 5/6/2 6/7/2 
f 5/6/2 3/5/2 2/8/2 
s 1
f 6/9/3 7/10/3 8/11/3 
f 7/10/3 6/9/3 5/12/3 
s 2
f 8/13/4 4/14/4 1/15/4 
f 4/14/4 8/13/4 7/16/4 
s 4
f 1/17/5 6/18/5 8/19/5 
f 6/18/5 1/17/5 3/20/5 
f 7/21/6 2/22/6 4/23/6 
f 2/22/6 7/21/6 5/24/6 
# 0 polygons - 12 triangles

